{
	"asset":{
		"generator":"Khronos glTF Blender I/O v4.1.63",
		"version":"2.0"
	},
	"extensionsUsed":[
		"EXT_texture_webp"
	],
	"scene":0,
	"scenes":[
		{
			"name":"Scene",
			"nodes":[
				0,
				1,
				2,
				3,
				4
			]
		}
	],
	"nodes":[
		{
			"name":"Scene Collection"
		},
		{
			"name":"Collection"
		},
		{
			"mesh":0,
			"name":"Cube"
		},
		{
			"mesh":1,
			"name":"Cube.001",
			"translation":[
				4.6575608253479,
				1.0371246337890625,
				-6.605775356292725
			]
		},
		{
			"mesh":2,
			"name":"Cube.002",
			"translation":[
				3.1816606521606445,
				3.0473453998565674,
				-2.793527126312256
			]
		}
	],
	"materials":[
		{
			"doubleSided":true,
			"name":"Material",
			"pbrMetallicRoughness":{
				"baseColorTexture":{
					"index":0
				},
				"metallicFactor":0,
				"roughnessFactor":0.5
			}
		},
		{
			"doubleSided":true,
			"name":"Material.004",
			"pbrMetallicRoughness":{
				"baseColorTexture":{
					"index":1
				},
				"metallicFactor":0,
				"roughnessFactor":0.5
			}
		},
		{
			"doubleSided":true,
			"name":"Material.005",
			"pbrMetallicRoughness":{
				"baseColorTexture":{
					"index":2
				},
				"metallicFactor":0,
				"roughnessFactor":0.5
			}
		}
	],
	"meshes":[
		{
			"name":"Cube",
			"primitives":[
				{
					"attributes":{
						"POSITION":0,
						"NORMAL":1,
						"TEXCOORD_0":2
					},
					"indices":3,
					"material":0
				}
			]
		},
		{
			"name":"Cube.002",
			"primitives":[
				{
					"attributes":{
						"POSITION":4,
						"NORMAL":5,
						"TEXCOORD_0":6
					},
					"indices":7,
					"material":1
				}
			]
		},
		{
			"name":"Cube.003",
			"primitives":[
				{
					"attributes":{
						"POSITION":8,
						"NORMAL":9,
						"TEXCOORD_0":10
					},
					"indices":11,
					"material":2
				}
			]
		}
	],
	"textures":[
		{
			"extensions":{
				"EXT_texture_webp":{
					"source":0
				}
			},
			"sampler":0,
			"source":1
		},
		{
			"extensions":{
				"EXT_texture_webp":{
					"source":2
				}
			},
			"sampler":0,
			"source":3
		},
		{
			"extensions":{
				"EXT_texture_webp":{
					"source":4
				}
			},
			"sampler":0,
			"source":5
		}
	],
	"images":[
		{
			"mimeType":"image/webp",
			"name":"4cdf26cf5c6c5f9b499e18f6191cf17f",
			"uri":"4cdf26cf5c6c5f9b499e18f6191cf17f.webp"
		},
		{
			"mimeType":"image/jpeg",
			"name":"4cdf26cf5c6c5f9b499e18f6191cf17f",
			"uri":"4cdf26cf5c6c5f9b499e18f6191cf17f.jpg"
		},
		{
			"mimeType":"image/webp",
			"name":"kronotex-laminat-exquisit-D4170-tik-nostalgiya",
			"uri":"kronotex-laminat-exquisit-D4170-tik-nostalgiya.webp"
		},
		{
			"mimeType":"image/jpeg",
			"name":"kronotex-laminat-exquisit-D4170-tik-nostalgiya",
			"uri":"kronotex-laminat-exquisit-D4170-tik-nostalgiya.jpg"
		},
		{
			"mimeType":"image/webp",
			"name":"1692798104_grizly-club-p-kartinki-stena-bez-fona-56",
			"uri":"1692798104_grizly-club-p-kartinki-stena-bez-fona-56.webp"
		},
		{
			"mimeType":"image/jpeg",
			"name":"1692798104_grizly-club-p-kartinki-stena-bez-fona-56",
			"uri":"1692798104_grizly-club-p-kartinki-stena-bez-fona-56.jpg"
		}
	],
	"accessors":[
		{
			"bufferView":0,
			"componentType":5126,
			"count":306,
			"max":[
				9.404284477233887,
				8.838778495788574,
				1
			],
			"min":[
				-1,
				-1,
				-14.123480796813965
			],
			"type":"VEC3"
		},
		{
			"bufferView":1,
			"componentType":5126,
			"count":306,
			"type":"VEC3"
		},
		{
			"bufferView":2,
			"componentType":5126,
			"count":306,
			"type":"VEC2"
		},
		{
			"bufferView":3,
			"componentType":5123,
			"count":948,
			"type":"SCALAR"
		},
		{
			"bufferView":4,
			"componentType":5126,
			"count":24,
			"max":[
				4.81797456741333,
				0.0371246337890625,
				5.665796756744385
			],
			"min":[
				-4.81797456741333,
				-0.0371246337890625,
				-5.665796756744385
			],
			"type":"VEC3"
		},
		{
			"bufferView":5,
			"componentType":5126,
			"count":24,
			"type":"VEC3"
		},
		{
			"bufferView":6,
			"componentType":5126,
			"count":24,
			"type":"VEC2"
		},
		{
			"bufferView":7,
			"componentType":5123,
			"count":36,
			"type":"SCALAR"
		},
		{
			"bufferView":8,
			"componentType":5126,
			"count":122,
			"max":[
				0.21177807450294495,
				2.7050180435180664,
				0.1942349374294281
			],
			"min":[
				-0.23172375559806824,
				-1.9730956554412842,
				-0.19721604883670807
			],
			"type":"VEC3"
		},
		{
			"bufferView":9,
			"componentType":5126,
			"count":122,
			"type":"VEC3"
		},
		{
			"bufferView":10,
			"componentType":5126,
			"count":122,
			"type":"VEC2"
		},
		{
			"bufferView":11,
			"componentType":5123,
			"count":180,
			"type":"SCALAR"
		}
	],
	"bufferViews":[
		{
			"buffer":0,
			"byteLength":3672,
			"byteOffset":0,
			"target":34962
		},
		{
			"buffer":0,
			"byteLength":3672,
			"byteOffset":3672,
			"target":34962
		},
		{
			"buffer":0,
			"byteLength":2448,
			"byteOffset":7344,
			"target":34962
		},
		{
			"buffer":0,
			"byteLength":1896,
			"byteOffset":9792,
			"target":34963
		},
		{
			"buffer":0,
			"byteLength":288,
			"byteOffset":11688,
			"target":34962
		},
		{
			"buffer":0,
			"byteLength":288,
			"byteOffset":11976,
			"target":34962
		},
		{
			"buffer":0,
			"byteLength":192,
			"byteOffset":12264,
			"target":34962
		},
		{
			"buffer":0,
			"byteLength":72,
			"byteOffset":12456,
			"target":34963
		},
		{
			"buffer":0,
			"byteLength":1464,
			"byteOffset":12528,
			"target":34962
		},
		{
			"buffer":0,
			"byteLength":1464,
			"byteOffset":13992,
			"target":34962
		},
		{
			"buffer":0,
			"byteLength":976,
			"byteOffset":15456,
			"target":34962
		},
		{
			"buffer":0,
			"byteLength":360,
			"byteOffset":16432,
			"target":34963
		}
	],
	"samplers":[
		{
			"magFilter":9729,
			"minFilter":9987
		}
	],
	"buffers":[
		{
			"byteLength":16792,
			"uri":"untitled.bin"
		}
	]
}
